<svg width="1132" height="897" viewBox="0 0 1132 897" fill="none" xmlns="http://www.w3.org/2000/svg">
<g filter="url(#filter0_f_15_8)">
<path fill-rule="evenodd" clip-rule="evenodd" d="M404.912 164.291C473.942 133.977 549.346 124.443 625.317 120.313C741.726 113.986 882.185 72.9288 964.529 133.873C1043.83 192.564 1050.06 312.554 998.411 396.447C946.333 481.034 788.71 477.946 709.348 548.352C655.498 596.125 686.427 678.922 629.163 724.025C567.728 772.413 479.225 787.418 396.95 794.403C304.525 802.25 216.04 790.374 131.269 766.296C19.1113 734.439 -178.704 731.547 -173.246 632.448C-166.757 514.649 44.7369 473.072 152.179 386.67C195.433 351.886 227.769 313.086 269.046 276.767C313.806 237.382 347.246 189.614 404.912 164.291Z" fill="url(#paint0_linear_15_8)"/>
</g>
<defs>
<filter id="filter0_f_15_8" x="-273.356" y="0.925964" width="1405.09" height="895.882" filterUnits="userSpaceOnUse" color-interpolation-filters="sRGB">
<feFlood flood-opacity="0" result="BackgroundImageFix"/>
<feBlend mode="normal" in="SourceGraphic" in2="BackgroundImageFix" result="shape"/>
<feGaussianBlur stdDeviation="50" result="effect1_foregroundBlur_15_8"/>
</filter>
<linearGradient id="paint0_linear_15_8" x1="545.741" y1="202.936" x2="510.596" y2="782.658" gradientUnits="userSpaceOnUse">
<stop stop-color="#6823FF"/>
<stop offset="1" stop-color="white" stop-opacity="0"/>
</linearGradient>
</defs>
</svg>
