<svg width="52" height="37" viewBox="0 0 52 37" fill="none" xmlns="http://www.w3.org/2000/svg">
  <path d="M48.8083 15.5215H3.19212C1.70557 15.5215 0.500488 16.8185 0.500488 18.4185V18.7235C0.500488 20.3235 1.70557 21.6205 3.19212 21.6205H48.8083C50.2948 21.6205 51.4999 20.3235 51.4999 18.7235V18.4185C51.4999 16.8185 50.2948 15.5215 48.8083 15.5215Z" fill="white" />
  <path d="M48.8083 30.7695H3.19212C1.70557 30.7695 0.500488 32.0666 0.500488 33.6666V33.9715C0.500488 35.5715 1.70557 36.8685 3.19212 36.8685H48.8083C50.2948 36.8685 51.4999 35.5715 51.4999 33.9715V33.6666C51.4999 32.0666 50.2948 30.7695 48.8083 30.7695Z" fill="white" />
  <path d="M48.8083 0.273438H3.19212C1.70557 0.273438 0.500488 1.57048 0.500488 3.17047V3.47542C0.500488 5.0754 1.70557 6.37245 3.19212 6.37245H48.8083C50.2948 6.37245 51.4999 5.0754 51.4999 3.47542V3.17047C51.4999 1.57048 50.2948 0.273438 48.8083 0.273438Z" fill="white" />
</svg>